<?xml version="1.0" standalone="no"?>
<!DOCTYPE svg PUBLIC "-//W3C//DTD SVG 20010904//EN"
 "http://www.w3.org/TR/2001/REC-SVG-20010904/DTD/svg10.dtd">
<svg version="1.0" xmlns="http://www.w3.org/2000/svg"
viewBox="0 0 400.000000 400.000000"
 preserveAspectRatio="xMidYMid meet">

<g transform="translate(0.000000,400.000000) scale(0.100000,-0.100000)"
fill="#ffffff" stroke="none">
<path d="M1496 3710 c-163 -15 -391 -49 -571 -87 -153 -31 -425 -104 -499
-132 l-28 -11 5 -418 c7 -511 25 -718 93 -1019 134 -601 458 -1084 947 -1412
205 -137 475 -281 528 -281 59 0 431 209 613 345 107 79 276 232 325 293 l30
39 -88 -33 c-124 -47 -247 -81 -381 -107 -156 -29 -545 -32 -654 -4 -369 94
-575 442 -553 936 10 217 58 393 166 611 230 459 585 783 1025 935 118 40 200
55 310 55 168 0 293 -47 396 -150 105 -105 160 -248 160 -416 0 -319 -233
-645 -596 -832 -121 -61 -193 -91 -489 -197 -230 -83 -230 -83 -227 -112 17
-173 107 -312 246 -377 104 -49 164 -61 306 -60 106 1 139 5 214 28 262 79
471 215 543 353 51 97 106 284 147 498 53 279 66 471 66 950 l0 382 -122 36
c-262 78 -538 135 -828 173 -145 19 -915 28 -1084 14z m-428 -2026 c61 -39 79
-126 39 -185 -66 -99 -201 -84 -243 27 -17 43 -16 47 2 92 33 81 129 112 202
66z"/>
<path d="M2525 2996 c-122 -39 -241 -135 -335 -273 -126 -181 -181 -377 -194
-685 -3 -65 -1 -120 3 -122 11 -7 258 78 356 123 339 157 545 416 545 685 0
72 -4 91 -31 145 -49 98 -122 141 -236 140 -37 0 -86 -6 -108 -13z"/>
</g>
</svg>
